<svg
width="150"
height="50"
viewBox="0 0 86 18"
xmlns="http://www.w3.org/2000/svg"
className="fill-mainblack hover:scale-105 w-32 h-10 lg:w-36 lg:h-12"
>
<path d="M.694 12.938V2.002h3.04v11.195h5.372v2.798H2.458l-1.196-1.459c-.406-.52-.568-.999-.568-1.6M10.748 13.717l3.284-11.715h3.486c.649 0 1.054.3 1.236.94l3.02 10.775c.142.48.162.8.162 1.419v.86h-2.695l-1.074-4.259-4.358 2.2-.527 2.058h-2.695v-.86c0-.619.02-.939.162-1.418m7.276-2.52L16.424 4.8h-.325l-1.601 6.398H18.025zM23.315 12.938V2.002h3.04v11.195h5.372v2.798h-6.649l-1.196-1.459c-.405-.52-.567-.999-.567-1.6M36.49 2.003h-3.04v13.994h3.04V2.003zM38.557 11.554V6.445c0-2.979 1.642-4.598 4.662-4.598h1.331c2.98 0 4.662 1.5 4.662 4.158h-3.04v-.56c0-.519-.284-.8-.811-.8h-2.952c-.527 0-.811.281-.811.8v7.11c0 .519.284.799.81.799h2.953c.527 0 .81-.28.81-.8v-1.759h-2.107v-2.8h3.385l1.196 1.46c.405.5.567.96.567 1.6v.5c0 2.978-1.642 4.597-4.662 4.597h-1.33c-3.02 0-4.663-1.62-4.663-4.598zM50.29 13.717l3.284-11.715h3.487c.649 0 1.054.3 1.236.94l3.02 10.775c.142.48.162.8.162 1.419v.86h-2.695l-1.075-4.259-4.358 2.2-.527 2.058H50.13v-.86c0-.619.02-.939.162-1.418m7.276-2.52L55.966 4.8h-.325l-1.601 6.398H57.567zM77.338 10.763h-.57v.695h.569a.16.16 0 00.124-.053.217.217 0 00.047-.142v-.3a.213.213 0 00-.046-.143.153.153 0 00-.124-.056M75.19 10.76h-.418a.16.16 0 00-.129.055.214.214 0 00-.046.143l-.002 1.247c0 .056.015.103.046.141a.162.162 0 00.129.06h.418c.05 0 .093-.02.124-.059a.207.207 0 00.051-.141l.002-1.246a.207.207 0 00-.05-.143.157.157 0 00-.125-.056M73.1 10.757h-.594l-.002.753h.595c.05 0 .093-.018.126-.056a.212.212 0 00.05-.143v-.354a.203.203 0 00-.05-.144.156.156 0 00-.124-.056z"></path>
<path d="M75.939 0c-5.04-.007-9.131 4.016-9.139 8.987-.007 4.97 4.072 9.005 9.111 9.013 5.04.008 9.131-4.016 9.139-8.987.008-4.97-4.072-9.005-9.111-9.013zm-3.417 4.16l4.691.007-.721 1.122-4.689-.005.719-1.124zm-.963 8.115a.498.498 0 01-.151.366.508.508 0 01-.37.152h-.62a.508.508 0 01-.367-.147.487.487 0 01-.147-.364v-.241h.38l.056.224c.025.092.09.14.195.14h.419a.16.16 0 00.127-.056.214.214 0 00.048-.143v-.265c0-.13-.058-.197-.174-.197h-.525a.518.518 0 01-.524-.519v-.35a.517.517 0 01.524-.513h.61c.144.001.266.05.367.147a.48.48 0 01.147.362v.218h-.379l-.056-.198a.186.186 0 00-.192-.141h-.413a.155.155 0 00-.127.056.205.205 0 00-.049.144v.205c0 .128.057.192.176.192h.526c.142 0 .265.052.368.154a.495.495 0 01.153.365v.41l-.002-.001zm2.151-.886a.521.521 0 01-.527.515h-.679v.89h-.437l.004-2.43h1.114c.144 0 .27.051.373.153a.49.49 0 01.152.36v.511zm2.086.889c0 .147-.05.27-.155.37a.509.509 0 01-.37.15h-.59a.513.513 0 01-.372-.153.492.492 0 01-.153-.37l.002-1.397c0-.14.052-.26.154-.36a.509.509 0 01.373-.15h.59c.147 0 .268.05.37.15a.478.478 0 01.155.363l-.002 1.397h-.002zm.113-2.488l-5.94-.007 1.448-2.25-1.06-.001.723-1.124 4.418.006-.724 1.124-1.98-.003-.734 1.125 3.19.005 2.922-4.536 3.62 5.669-1.369-.002-.72-1.125-2.144-.004.723-1.126h.702l-.816-1.278L75.91 9.79h-.001zm1.669 3.012l-.4-.952h-.413l-.002.95h-.437l.004-2.43 1.09.001c.146 0 .27.05.37.152a.49.49 0 01.154.36v.425c0 .11-.032.21-.093.3a.573.573 0 01-.24.19l.43 1.005h-.463zm2.336-2.035h-.632l-.004 2.037h-.436l.002-2.038h-.626v-.394l1.696.002v.393zm1.973 1.523a.495.495 0 01-.153.366.51.51 0 01-.372.152h-.617a.514.514 0 01-.369-.147.488.488 0 01-.147-.364v-.242h.38l.056.225c.026.092.09.14.195.14h.418a.157.157 0 00.128-.056.22.22 0 00.047-.143v-.265c0-.13-.057-.197-.174-.197h-.525a.506.506 0 01-.37-.153.499.499 0 01-.153-.367v-.35c0-.14.053-.262.154-.362.1-.101.226-.15.371-.15h.609c.146 0 .267.05.368.146a.487.487 0 01.148.362v.218h-.379l-.057-.199c-.03-.094-.095-.14-.192-.14h-.413a.159.159 0 00-.128.056.218.218 0 00-.049.144v.205c0 .127.06.192.175.192h.524a.5.5 0 01.368.155.486.486 0 01.157.364v.411-.001zm.268-1.792h-.093v.194h-.047v-.195h-.092v-.041h.232v.042zm.277.195v-.146c0-.006 0-.014.002-.025-.005.01-.006.017-.012.025l-.075.115h-.007l-.078-.118-.014-.023c0 .01.004.017.004.026v.145h-.04v-.235h.04l.094.142.094-.142h.037v.235h-.045z"></path>
</svg>